<svg xmlns="http://www.w3.org/2000/svg" viewBox="0 0 32 32"><style>rect{fill:#141416}@media (prefers-color-scheme:dark){rect{fill:#ECEAF1}}</style><rect x="3.0" y="3.0" width="2.4" height="2.4"/><rect x="3.0" y="5.6" width="2.4" height="2.4"/><rect x="3.0" y="8.2" width="2.4" height="2.4"/><rect x="3.0" y="10.8" width="2.4" height="2.4"/><rect x="3.0" y="13.4" width="2.4" height="2.4"/><rect x="3.0" y="16.0" width="2.4" height="2.4"/><rect x="3.0" y="18.6" width="2.4" height="2.4"/><rect x="3.0" y="21.2" width="2.4" height="2.4"/><rect x="3.0" y="23.8" width="2.4" height="2.4"/><rect x="3.0" y="26.4" width="2.4" height="2.4"/><rect x="5.6" y="3.0" width="2.4" height="2.4"/><rect x="5.6" y="5.6" width="2.4" height="2.4"/><rect x="5.6" y="8.2" width="2.4" height="2.4"/><rect x="5.6" y="10.8" width="2.4" height="2.4"/><rect x="5.6" y="13.4" width="2.4" height="2.4"/><rect x="5.6" y="16.0" width="2.4" height="2.4"/><rect x="5.6" y="18.6" width="2.4" height="2.4"/><rect x="5.6" y="21.2" width="2.4" height="2.4"/><rect x="5.6" y="23.8" width="2.4" height="2.4"/><rect x="5.6" y="26.4" width="2.4" height="2.4"/><rect x="8.2" y="13.4" width="2.4" height="2.4"/><rect x="8.2" y="16.0" width="2.4" height="2.4"/><rect x="10.8" y="10.8" width="2.4" height="2.4"/><rect x="10.8" y="13.4" width="2.4" height="2.4"/><rect x="10.8" y="16.0" width="2.4" height="2.4"/><rect x="13.4" y="8.2" width="2.4" height="2.4"/><rect x="13.4" y="10.8" width="2.4" height="2.4"/><rect x="13.4" y="13.4" width="2.4" height="2.4"/><rect x="13.4" y="16.0" width="2.4" height="2.4"/><rect x="13.4" y="18.6" width="2.4" height="2.4"/><rect x="16.0" y="8.2" width="2.4" height="2.4"/><rect x="16.0" y="10.8" width="2.4" height="2.4"/><rect x="16.0" y="16.0" width="2.4" height="2.4"/><rect x="16.0" y="18.6" width="2.4" height="2.4"/><rect x="18.6" y="5.6" width="2.4" height="2.4"/><rect x="18.6" y="8.2" width="2.4" height="2.4"/><rect x="18.6" y="18.6" width="2.4" height="2.4"/><rect x="18.6" y="21.2" width="2.4" height="2.4"/><rect x="21.2" y="3.0" width="2.4" height="2.4"/><rect x="21.2" y="5.6" width="2.4" height="2.4"/><rect x="21.2" y="8.2" width="2.4" height="2.4"/><rect x="21.2" y="21.2" width="2.4" height="2.4"/><rect x="21.2" y="23.8" width="2.4" height="2.4"/><rect x="23.8" y="3.0" width="2.4" height="2.4"/><rect x="23.8" y="5.6" width="2.4" height="2.4"/><rect x="23.8" y="23.8" width="2.4" height="2.4"/><rect x="23.8" y="26.4" width="2.4" height="2.4"/><rect x="26.4" y="3.0" width="2.4" height="2.4"/><rect x="26.4" y="26.4" width="2.4" height="2.4"/></svg>
